<?xml version="1.0" standalone="no"?>
<!DOCTYPE svg PUBLIC "-//W3C//DTD SVG 20010904//EN"
 "http://www.w3.org/TR/2001/REC-SVG-20010904/DTD/svg10.dtd">
<svg version="1.0" xmlns="http://www.w3.org/2000/svg"
 width="512.000000pt" height="512.000000pt" viewBox="0 0 512.000000 512.000000"
 preserveAspectRatio="xMidYMid meet">

<g transform="translate(0.000000,512.000000) scale(0.100000,-0.100000)"
fill="#000000" stroke="none">
<path d="M645 5056 c-192 -44 -364 -165 -470 -330 -154 -241 -152 -560 6 -803
22 -34 74 -93 114 -132 l73 -69 -46 -88 c-291 -561 -383 -1168 -261 -1719 213
-958 882 -1613 1844 -1804 200 -40 335 -52 600 -56 143 -2 249 -2 235 1 -14 2
-77 11 -140 20 -293 39 -563 120 -815 244 -251 123 -422 247 -615 446 -232
240 -412 541 -524 877 -89 266 -127 500 -127 777 0 398 89 756 291 1165 140
285 299 513 490 704 132 133 255 226 390 295 127 65 164 77 360 121 84 19 154
36 157 39 9 9 -235 18 -322 12 -94 -6 -232 -28 -325 -51 -111 -26 -106 -26
-117 -2 -18 40 -113 151 -166 195 -72 59 -164 110 -255 140 -96 30 -283 40
-377 18z m266 -411 c51 -18 133 -75 148 -104 10 -17 3 -25 -52 -64 -115 -82
-258 -220 -379 -367 l-36 -44 -32 34 c-17 19 -44 57 -58 84 -24 45 -27 62 -27
146 0 83 3 101 27 145 60 115 172 185 294 185 39 0 90 -7 115 -15z"/>
<path d="M4165 5056 c-201 -47 -359 -157 -473 -329 -14 -20 -23 -39 -21 -41 2
-2 40 -13 83 -25 44 -12 127 -46 186 -76 l107 -55 40 39 c65 61 125 85 220 89
75 4 89 1 145 -26 74 -34 130 -87 166 -157 24 -44 27 -62 27 -145 0 -84 -3
-101 -27 -146 -14 -27 -40 -65 -57 -83 -27 -29 -30 -36 -19 -51 36 -48 139
-203 172 -257 44 -74 43 -75 136 24 109 113 163 216 194 365 52 254 -30 510
-222 689 -85 80 -157 123 -269 162 -75 26 -106 30 -208 33 -79 3 -140 -1 -180
-10z"/>
<path d="M1445 3586 c-5 -3 -22 -7 -37 -10 -15 -4 -44 -21 -64 -39 -112 -98
-92 -261 40 -329 60 -31 152 -22 203 18 115 91 107 263 -15 332 -37 20 -106
35 -127 28z"/>
<path d="M3598 3581 c-124 -40 -183 -171 -126 -280 37 -71 86 -104 162 -109
95 -6 165 36 201 120 37 91 -6 206 -95 253 -34 18 -109 26 -142 16z"/>
<path d="M2335 3286 c-157 -31 -279 -87 -375 -173 -52 -47 -120 -130 -120
-146 0 -3 29 -15 65 -27 35 -12 109 -44 162 -72 237 -123 289 -147 350 -159
l64 -13 -3 -220 -3 -221 -32 -67 c-59 -126 -167 -207 -305 -229 -103 -17 -107
-18 -123 -49 -18 -34 -12 -71 16 -96 29 -27 163 -14 255 23 86 36 182 108 232
174 20 27 39 49 42 49 3 0 25 -25 48 -55 52 -66 149 -137 234 -171 84 -34 220
-45 247 -20 28 25 34 62 16 96 -16 31 -20 32 -123 49 -138 22 -246 103 -305
229 l-32 67 -3 221 -3 220 64 13 c61 12 113 36 350 159 53 28 127 60 162 72
36 12 65 24 65 27 0 16 -69 99 -122 148 -73 66 -186 124 -303 156 -102 27
-408 36 -520 15z"/>
</g>
</svg>
